<svg version="1.1" xmlns="http://www.w3.org/2000/svg" viewBox="0 0 100 100">
  <g transform="translate(50,50) rotate(-90) translate(-50,-50)">
    <path d="M50,52.5 h12.5c3,0,3,-5,0,-5h-12.5c-3,0,-3,5,0,5" fill="#0056b3"/>
    <path d="M50,52.5 h22.5c3,0,3,-5,0,-5h-22.5c-3,0,-3,5,0,5" fill="#0056b3"/>
  </g>
  <path d="M90.7,43.2L85,49c-0.5-18.8-16-34-35-34c-19.3,0-35,15.7-35,35s15.7,35,35,35c1.4,0,2.5-1.1,2.5-2.5S51.4,80,50,80c-16.5,0-30-13.5-30-30s13.5-30,30-30c16.2,0,29.4,12.9,30,28.9l-5.7-5.7c-1-1-2.6-1-3.5,0c-1,1-1,2.6,0,3.5l10,10c0.5,0.5,1.1,0.7,1.8,0.7s1.3-0.2,1.8-0.7l10-10c1-1,1-2.6,0-3.5C93.3,42.3,91.7,42.3,90.7,43.2z" transform="translate(-15,-15) scale(1.3) translate(11.5,11.5)" fill="#0056b3"/>
</svg>
