<svg id="logo" lass="logo" version="1.1" xmlns="http://www.w3.org/2000/svg" xmlns:xlink="http://www.w3.org/1999/xlink" viewBox="0 0 500 150">
  <g class="logo-entity" id="symbol" transform="translate(0,5.76) scale(1.6)">
    <g class="logo-entity-inner">
      <g class="hands" transform="translate(-17.5,-17.5) scale(1.24) rotate(-90 50 50)">
        <path id="hour" class="arrows" d="M50,52.5 h12.5c3,0,3,-5,0,-5h-12.5c-3,0,-3,5,0,5" fill="#000000">
        </path>
        <path id="minute" class="arrows" d="M50,52.5 h22.5c3,0,3,-5,0,-5h-22.5c-3,0,-3,5,0,5" fill="#000000">
        </path>
      </g>
      <g transform="scale(1.24)">
        <path xmlns="http://www.w3.org/2000/svg" d="M90.7,43.2L85,49c-0.5-18.8-16-34-35-34c-19.3,0-35,15.7-35,35s15.7,35,35,35c1.4,0,2.5-1.1,2.5-2.5S51.4,80,50,80  c-16.5,0-30-13.5-30-30s13.5-30,30-30c16.2,0,29.4,12.9,30,28.9l-5.7-5.7c-1-1-2.6-1-3.5,0c-1,1-1,2.6,0,3.5l10,10  c0.5,0.5,1.1,0.7,1.8,0.7s1.3-0.2,1.8-0.7l10-10c1-1,1-2.6,0-3.5C93.3,42.3,91.7,42.3,90.7,43.2z" transform="translate(-15,-15)" fill="#000000">
        </path>
      </g>
    </g>
  </g>
  <g class="logo-entity" id="subtitle" transform="translate(99.63, 108.86) scale(1.227)">
    <g class="logo-entity-inner">
      <text font-size="30px" dominant-baseline="text-before-edge" alignment-baseline="text-before-edge" fill="#000000" font-family="Arial">Solutions for tomorrow</text>
    </g>
  </g>
  <g class="logo-entity focused" id="title" transform="translate(170.32, 0) scale(1.217)">
    <g class="logo-entity-inner">
      <text font-size="80px" dominant-baseline="text-before-edge" alignment-baseline="text-before-edge" fill="#000000" font-family="Arial">ZaUtre</text>
    </g>
  </g>
</svg>